<svg width="66" height="64" viewBox="0 0 66 64" fill="none" xmlns="http://www.w3.org/2000/svg">
<rect width="66" height="64" fill="#083D77"/>
<path fill-rule="evenodd" clip-rule="evenodd" d="M47.8911 17.9375H19.1149L16.6562 13.5304C16.3802 13.0357 15.8581 12.7292 15.2917 12.7292H12.1667C11.3037 12.7292 10.6042 13.4287 10.6042 14.2917C10.6042 15.1546 11.3037 15.8542 12.1667 15.8542H14.3742L16.8006 20.2034L22.3966 32.5852L22.4024 32.5977L22.8952 33.6883L17.2768 39.6812C16.8728 40.1123 16.7464 40.7342 16.95 41.2885C17.1536 41.8431 17.6525 42.2354 18.2393 42.3025L23.3604 42.8877C29.7661 43.6198 36.2342 43.6198 42.6396 42.8877L47.7608 42.3025C48.6181 42.2044 49.2338 41.43 49.1358 40.5725C49.0377 39.7152 48.2633 39.0996 47.4061 39.1977L42.2848 39.7829C36.115 40.4879 29.885 40.4879 23.7152 39.7829L21.6829 39.5506L25.8066 35.1521C25.8465 35.1094 25.8836 35.0652 25.9178 35.0196L27.4861 35.2237C29.684 35.5098 31.9054 35.5658 34.1148 35.391C39.2679 34.9835 44.0438 32.5315 47.3781 28.5815L48.5823 27.1547C48.6229 27.1068 48.6604 27.0565 48.6948 27.004L50.9394 23.5835C52.5302 21.159 50.7911 17.9375 47.8911 17.9375ZM26.0339 31.8833C25.6893 31.8385 25.3922 31.6198 25.2471 31.3042L25.2443 31.2981L20.6182 21.0625H47.8911C48.3054 21.0625 48.5538 21.5227 48.3265 21.8691L46.1338 25.2109L44.99 26.5657C42.1942 29.8779 38.1894 31.9339 33.8686 32.2758C31.8756 32.4333 29.8717 32.3827 27.8894 32.1248L26.0339 31.8833Z" fill="white"/>
<path d="M21.5417 45.5417C19.8158 45.5417 18.4167 46.9408 18.4167 48.6667C18.4167 50.3925 19.8158 51.7916 21.5417 51.7916C23.2676 51.7916 24.6667 50.3925 24.6667 48.6667C24.6667 46.9408 23.2676 45.5417 21.5417 45.5417Z" fill="white"/>
<path d="M41.3333 48.6667C41.3333 46.9408 42.7325 45.5417 44.4583 45.5417C46.1841 45.5417 47.5833 46.9408 47.5833 48.6667C47.5833 50.3925 46.1841 51.7916 44.4583 51.7916C42.7325 51.7916 41.3333 50.3925 41.3333 48.6667Z" fill="white"/>
</svg>
