<svg width="458" height="431" viewBox="0 0 458 431" fill="none" xmlns="http://www.w3.org/2000/svg">
<path fill-rule="evenodd" clip-rule="evenodd" d="M274.516 277.379C223.939 315.499 149.907 312.498 103.023 268.378C52.7186 221.04 52.7186 144.289 103.023 96.95C153.327 49.6111 234.887 49.6111 285.191 96.95C332.075 141.07 335.264 210.738 294.756 258.333L393.143 350.919C398.733 356.179 398.733 364.707 393.143 369.967C387.554 375.227 378.491 375.227 372.902 369.967L274.516 277.379ZM123.264 249.332C84.1383 212.512 84.1383 152.817 123.264 115.998C162.39 79.1786 225.825 79.1786 264.951 115.998C304.047 152.79 304.076 212.424 265.037 249.251C265.008 249.278 264.98 249.303 264.949 249.332C264.921 249.359 264.892 249.386 264.865 249.413C225.731 286.15 162.361 286.123 123.264 249.332Z" fill="#DDDDDD"/>
</svg>
