<svg width="43" height="45" viewBox="0 0 43 45" fill="none" xmlns="http://www.w3.org/2000/svg">
<path fill-rule="evenodd" clip-rule="evenodd" d="M25.7733 28.9607C21.0249 32.9407 14.0742 32.6274 9.67246 28.0209C4.94955 23.0784 4.94955 15.0649 9.67246 10.1224C14.3954 5.17979 22.0527 5.17979 26.7756 10.1224C31.1773 14.7288 31.4767 22.0027 27.6735 26.9721L36.9108 36.6388C37.4356 37.188 37.4356 38.0784 36.9108 38.6276C36.3861 39.1768 35.5352 39.1768 35.0104 38.6276L25.7733 28.9607ZM11.5728 26.0323C7.89944 22.188 7.89944 15.9553 11.5728 12.1111C15.2462 8.26689 21.2019 8.26689 24.8753 12.1111C28.5459 15.9525 28.5486 22.1788 24.8834 26.0239C24.8807 26.0267 24.878 26.0293 24.8751 26.0323C24.8725 26.0351 24.8698 26.0379 24.8673 26.0407C21.1931 29.8764 15.2435 29.8736 11.5728 26.0323Z" fill="black"/>
</svg>
